<?xml version="1.0" encoding="utf-8"?>
<!-- Generator: Adobe Illustrator 13.0.0, SVG Export Plug-In . SVG Version: 6.00 Build 14948)  -->
<!DOCTYPE svg PUBLIC "-//W3C//DTD SVG 1.0//EN" "http://www.w3.org/TR/2001/REC-SVG-20010904/DTD/svg10.dtd">
<svg version="1.0" id="Layer_1" xmlns="http://www.w3.org/2000/svg" xmlns:xlink="http://www.w3.org/1999/xlink" x="0px" y="0px"
	 width="75px" height="50px" viewBox="0 120 500 200" enable-background="new -21.515 -79.534 500 500"
	 xml:space="preserve" fill="#4555AE">
<g>
	<path fill="none" d="M327.326,184.055c1.157,1.335,2.283,2.704,3.373,4.105c6.358,8.18,11.53,17.492,15.18,27.768
		c0.188,0.528,0.378,1.055,0.558,1.589c0.307,0.91,0.594,1.824,0.873,2.737c23.892-11.276,37.649-21.445,34.877-29.682
		C379.163,181.588,358.094,179.722,327.326,184.055z"/>
	<path fill="none" d="M157.275,279.387c-3.305-10.395-4.813-20.938-4.692-31.298c0.021-1.777,0.089-3.546,0.205-5.31
		c-27.13,15.148-42.787,29.369-39.763,38.354c2.772,8.237,19.877,8.021,45.724,2.565c-0.329-0.901-0.652-1.802-0.958-2.711
		C157.612,280.453,157.445,279.918,157.275,279.387z"/>
	<path d="M176.564,314.059c25.623,29.849,67.705,42.834,107.284,29.517c39.581-13.317,65.257-49.097,67.626-88.365
		c-24.718,12.973-53.039,27.875-84.343,38.409C235.824,304.152,204.096,309.451,176.564,314.059z"/>
	<path d="M417.158,186.563c-5.488-16.315-44.112-19.171-96.895-9.852c-1.405-1.319-2.849-2.594-4.321-3.825
		c-25.68-21.42-61.546-29.401-95.563-17.956c-34.017,11.445-57.766,39.483-65.272,72.069c-0.432,1.873-0.809,3.761-1.132,5.662
		c-47.68,24.481-76.72,50.102-71.23,66.418c5.265,15.65,41.025,18.911,90.521,10.925c27.256-4.397,59.299-10.902,92.094-21.938
		c32.794-11.031,61.92-25.106,86.293-38.079C395.908,226.43,422.424,202.214,417.158,186.563z M113.026,281.133
		c-3.024-8.985,12.632-23.206,39.763-38.354c-0.116,1.764-0.185,3.533-0.205,5.31c-0.122,10.359,1.387,20.903,4.692,31.298
		c0.17,0.531,0.337,1.066,0.516,1.601c0.307,0.909,0.63,1.81,0.958,2.711C132.903,289.154,115.798,289.37,113.026,281.133z
		 M347.31,220.254c-0.279-0.914-0.566-1.827-0.873-2.737c-0.18-0.534-0.369-1.061-0.558-1.589
		c-3.649-10.276-8.821-19.588-15.18-27.768c-1.09-1.402-2.216-2.771-3.373-4.105c30.768-4.333,51.837-2.467,54.86,6.518
		C384.959,198.81,371.201,208.978,347.31,220.254z"/>
</g>
</svg>
